# xmcd CD database file
#
# Track frame offsets:
#	150
#	44828
#	71795
#	106653
#	132009
#	146907
#	173870
#	217760
#	257036
#	291883
#
# Disc length: 4291 seconds
#
# Revision: 0
# Processed by: cddbd v1.5.2PL0 Copyright (c) Steve Scherf et al.
# Submitted via: Feurio! 1.68 - http://www.feurio.com
#
DISCID=9b10c10a
DTITLE=Van Morrison - Astral weeks - Live at the Hollywood bowl
DYEAR=2009
DGENRE=BluesRock
TTITLE0=01 - Astral Weeks - I believe I've transcended
TTITLE1=02 - Beside you
TTITLE2=03 - Slim slow slider - I start breaking down
TTITLE3=04 - Sweet thing
TTITLE4=05 - The way young lovers do
TTITLE5=06 - Cyprus avenue - You came walking down
TTITLE6=07 - Ballerina
TTITLE7=08 - Madame George
TTITLE8=09 - Listen to the lion - The lion speaks
TTITLE9=10 - Common one
EXTD=
EXTT0=
EXTT1=
EXTT2=
EXTT3=
EXTT4=
EXTT5=
EXTT6=
EXTT7=
EXTT8=
EXTT9=
PLAYORDER=
